PathFileType	4	(X/Y/Z)	C:/Users/opensim2020/Desktop/walking_exp_matlab/subject02_walking08_straight_04.trc	
DataRate	CameraRate	NumFrames	NumMarkers	Units	OrigDataRate	OrigDataStartFrame	OrigNumFrames	
100.00	100.00	4	41	mm	100.00	3137	241	
Frame#	Time	LFHD			RFHD			LBHD			RBHD			C7			T10			CLAV			STRN			RBAK			LSHO			LUPA			LELB			LFRM			LWRA			LWRB			LFIN			RSHO			RUPA			RELB			RFRM			RWRA			RWRB			RFIN			LASI			RASI			LPSI			RPSI			LTHI			LKNE			LTIB			LANK			LHEE			LTOE			RTHI			RKNE			RTIB			RANK			RHEE			RTOE			*39			*40			
		X1	Y1	Z1	X2	Y2	Z2	X3	Y3	Z3	X4	Y4	Z4	X5	Y5	Z5	X6	Y6	Z6	X7	Y7	Z7	X8	Y8	Z8	X9	Y9	Z9	X10	Y10	Z10	X11	Y11	Z11	X12	Y12	Z12	X13	Y13	Z13	X14	Y14	Z14	X15	Y15	Z15	X16	Y16	Z16	X17	Y17	Z17	X18	Y18	Z18	X19	Y19	Z19	X20	Y20	Z20	X21	Y21	Z21	X22	Y22	Z22	X23	Y23	Z23	X24	Y24	Z24	X25	Y25	Z25	X26	Y26	Z26	X27	Y27	Z27	X28	Y28	Z28	X29	Y29	Z29	X30	Y30	Z30	X31	Y31	Z31	X32	Y32	Z32	X33	Y33	Z33	X34	Y34	Z34	X35	Y35	Z35	X36	Y36	Z36	X37	Y37	Z37	X38	Y38	Z38	X39	Y39	Z39	X40	Y40	Z40	X41	Y41	Z41	

151	1.500	1451.91174	-393.46198	1690.70996	1320.67798	-337.60089	1667.43323	1513.80896	-262.11972	1648.86926	1386.62048	-196.25000	1627.18323	1451.47144	-157.36414	1503.15710	1448.40564	-104.60680	1220.90491	1455.16345	-293.74417	1429.79297	1451.70886	-346.51028	1260.42273	1396.26917	-93.65470	1320.77844	1626.47827	-234.11223	1480.85193	1720.25879	-261.07123	1289.31152	1746.71887	-302.84042	1154.85083	1758.32544	-379.00366	1044.84216	1726.42798	-491.76022	970.64728	1758.22607	-451.94144	946.44092	1764.55212	-503.81525	906.46680	1261.19104	-218.36038	1455.49390	1191.54163	-165.93163	1264.68091	1180.35242	-163.46854	1118.04211	1157.86914	-176.92834	999.84033	1166.87732	-219.06801	869.82581	1147.43286	-165.86452	870.24725	1137.43958	-196.22743	804.73737	1594.14856	-333.73544	958.81787	1337.16589	-356.73865	959.04822	1490.75647	-131.00752	1001.84064	1376.85876	-135.16013	1004.18103	1637.65308	-204.30269	658.99799	1609.28894	-127.76346	472.29346	1608.08655	1.53198	325.66019	1580.29565	89.19418	116.74694	1528.78650	129.66133	103.10754	1594.99475	-44.86269	31.11024	1251.97217	-349.66812	664.14441	1292.71033	-412.22357	466.25000	1282.55542	-415.51129	278.34274	1316.79016	-435.12823	86.39998	1375.40002	-409.92639	35.26522	1297.24609	-589.09436	39.00780	1395.36023	-281.54849	1775.18921	-3357.18848	2845.98071	1034.29529 
152	1.510	1449.08032	-402.57706	1691.20032	1317.52576	-347.02869	1667.74817	1510.58984	-271.16461	1649.50720	1383.24231	-205.54352	1627.69617	1448.43713	-166.29436	1503.88208	1446.32104	-114.31754	1221.10144	1452.42102	-302.76254	1430.58264	1449.09521	-356.19421	1261.51794	1393.19043	-103.38387	1320.93518	1623.93213	-243.11467	1481.54468	1716.92041	-268.58737	1289.19653	1742.97656	-309.53836	1154.37402	1754.61255	-384.46609	1043.54016	1722.91919	-496.46405	968.17749	1754.43787	-456.18015	944.32422	1760.98914	-507.71552	903.91791	1257.96521	-228.25653	1455.58179	1188.67163	-175.96622	1264.52625	1178.17603	-173.99620	1117.82275	1155.60059	-187.23749	999.54059	1164.93347	-228.94455	869.76862	1145.18140	-176.49966	870.03558	1135.28967	-206.98331	804.67334	1590.96082	-344.95810	958.71686	1334.21570	-367.55945	960.39087	1488.78369	-142.25674	1002.46692	1374.23413	-145.87833	1005.88159	1635.65894	-215.17149	659.54529	1608.63379	-139.49916	473.32053	1607.29456	-6.83076	329.71231	1580.27185	85.27360	122.54913	1528.16528	124.80142	110.12396	1595.23560	-45.16728	31.09760	1250.53882	-359.68463	664.92987	1291.99841	-423.65234	467.21317	1281.99426	-424.05472	278.78406	1317.22534	-436.82513	86.93024	1375.26135	-410.54306	35.65879	1298.48999	-591.39661	37.97932	1391.84644	-291.00354	1775.49219	-3360.24487	2845.15625	1034.07007 
153	1.520	1445.97986	-411.82098	1691.66089	1314.34985	-356.34747	1668.07227	1507.29712	-280.19229	1650.34937	1379.87451	-214.78224	1628.53882	1445.50732	-175.09482	1504.66394	1444.12402	-123.87226	1221.49719	1449.71948	-311.76825	1431.59387	1446.49048	-365.87833	1262.86987	1390.41089	-112.96709	1321.17737	1621.31641	-252.11620	1482.48853	1713.66699	-275.93808	1289.46619	1739.04028	-315.95038	1154.29736	1750.86182	-389.52655	1042.52307	1719.41943	-500.64536	965.86047	1750.72241	-459.95657	942.42010	1757.46265	-510.92670	901.45148	1255.40308	-237.15184	1456.26331	1185.71118	-186.20065	1264.79382	1175.18530	-184.86604	1118.15808	1153.08142	-198.20706	999.71973	1162.02539	-241.15945	870.36145	1142.73193	-187.81358	870.23767	1132.99487	-218.05362	804.84705	1587.50903	-356.18604	959.07898	1331.10168	-378.21152	962.11237	1486.99707	-153.30740	1003.30322	1371.72852	-156.26337	1007.57263	1633.61414	-226.36090	660.20251	1608.36890	-152.16141	474.53256	1606.31775	-16.31452	333.96002	1580.17773	80.85100	129.01625	1527.36926	119.27511	117.90306	1595.45593	-45.42818	31.19674	1248.23816	-371.15286	666.17969	1290.86597	-433.82269	467.62723	1281.49390	-431.01935	278.93256	1317.20984	-439.22482	87.24154	1375.48608	-411.06384	36.15635	1298.15540	-592.52338	37.02386	1388.50000	-300.44641	1776.06458	-3357.38037	2845.71753	1034.17993 
154	1.530	1442.96582	-420.99573	1692.24536	1311.29919	-365.75446	1668.59802	1504.10571	-289.11789	1651.49438	1376.64368	-223.89566	1629.57556	1442.72803	-183.61400	1505.49622	1441.85376	-133.42970	1222.06140	1447.08826	-320.72821	1432.85815	1443.92261	-375.51273	1264.45410	1387.77588	-122.21695	1321.66895	1618.67175	-261.01794	1483.74585	1710.55933	-283.11163	1290.21667	1735.28894	-322.16452	1154.57446	1747.04199	-394.15707	1041.76379	1715.87036	-504.29059	963.65723	1746.99023	-463.16495	940.65668	1753.72839	-513.44965	898.93390	1252.76208	-246.09579	1457.18542	1182.62915	-196.94432	1265.26758	1172.85547	-195.94441	1118.73828	1150.50415	-210.39966	1000.59821	1159.98645	-251.89117	870.86951	1139.92944	-199.01773	871.01727	1130.64441	-229.48032	805.42224	1583.82092	-367.20447	959.81677	1327.87219	-388.86890	964.12427	1485.17493	-164.14192	1004.24249	1369.30994	-166.53085	1009.05139	1631.56116	-237.96936	660.79694	1608.32410	-165.97681	475.45251	1605.03406	-26.90359	338.30304	1579.88464	75.16270	135.91266	1526.23193	112.34617	126.11971	1595.47974	-45.71238	31.20758	1246.41077	-381.94119	666.56177	1289.59363	-442.40656	467.71127	1280.86401	-435.37793	279.03885	1317.38501	-440.28192	87.26923	1375.40002	-411.44080	36.08225	1297.84314	-593.16241	36.25768	1385.12170	-309.98007	1776.87781	-3360.44189	2845.24658	1033.88574 
